<?xml version="1.0" encoding="UTF-8"?>
<svg id="Layer_1" data-name="Layer 1" xmlns="http://www.w3.org/2000/svg" version="1.1" viewBox="0 0 114 114">
  <path d="M111.6135,113.7627H2.3865c-1.1045,0-2-.8955-2-2v-50.6709c0-10.8271,8.8081-19.6353,19.6353-19.6353h9.1025c.8169,0,1.5518.4966,1.856,1.2549,4.29,10.6851,14.5034,17.5894,26.02,17.5894s21.7295-6.9043,26.0225-17.5898c.3037-.7578,1.0391-1.2544,1.8555-1.2544h9.1006c10.8262,0,19.6348,8.8081,19.6348,19.6353v50.6709c0,1.1045-.8955,2-2,2ZM4.3865,109.7627h105.2271v-48.6709c0-8.6211-7.0137-15.6353-15.6348-15.6353h-7.7793c-5.1807,11.4932-16.4971,18.8442-29.1992,18.8442s-24.0186-7.3511-29.1978-18.8442h-7.7808c-8.6211,0-15.6353,7.0142-15.6353,15.6353v48.6709Z" fill="#cfc" stroke-width="0"/>
  <path d="M57.0002,64.3008c-13.1592,0-24.8296-7.8892-29.7319-20.0991-1.5244-3.7915-2.2974-7.8062-2.2974-11.9326C24.9709,14.6064,39.3391.2373,57.0002.2373s32.0322,14.3691,32.0322,32.0317c0,4.1274-.7734,8.1426-2.2988,11.9341-4.9043,12.2085-16.5752,20.0977-29.7334,20.0977ZM57.0002,4.2373c-15.4556,0-28.0293,12.5752-28.0293,28.0317,0,3.6128.6758,7.1255,2.0088,10.4414,4.2905,10.686,14.5039,17.5903,26.0205,17.5903s21.7295-6.9043,26.0225-17.5898c1.334-3.3154,2.0098-6.8286,2.0098-10.4419,0-15.4565-12.5752-28.0317-28.0322-28.0317Z" fill="#cfc" stroke-width="0"/>
  <g>
    <path d="M22.4734,64.0059c-1.1045,0-2-.8955-2-2v-18.5488c0-1.1045.8955-2,2-2s2,.8955,2,2v18.5488c0,1.1045-.8955,2-2,2Z" fill="#cfc" stroke-width="0"/>
    <path d="M22.4734,74.9971c-4.1333,0-7.4956-3.3623-7.4956-7.4961s3.3623-7.4951,7.4956-7.4951,7.4961,3.3623,7.4961,7.4951-3.3628,7.4961-7.4961,7.4961ZM22.4734,64.0059c-1.9272,0-3.4956,1.5684-3.4956,3.4951,0,1.9277,1.5684,3.4961,3.4956,3.4961s3.4961-1.5684,3.4961-3.4961c0-1.9268-1.5684-3.4951-3.4961-3.4951Z" fill="#cfc" stroke-width="0"/>
    <path d="M22.4734,73.3877c-3.2456,0-5.8857-2.6406-5.8857-5.8867s2.6401-5.8857,5.8857-5.8857,5.8862,2.6406,5.8862,5.8857-2.6406,5.8867-5.8862,5.8867ZM22.4734,65.6152c-1.04,0-1.8857.8457-1.8857,1.8857s.8457,1.8867,1.8857,1.8867,1.8862-.8467,1.8862-1.8867-.8462-1.8857-1.8862-1.8857Z" fill="#cfc" stroke-width="0"/>
  </g>
  <g>
    <path d="M91.5276,64.0059c-1.1045,0-2-.8955-2-2v-18.5488c0-1.1045.8955-2,2-2s2,.8955,2,2v18.5488c0,1.1045-.8955,2-2,2Z" fill="#cfc" stroke-width="0"/>
    <path d="M95.1653,73.6201c-.5547,0-1.1064-.2295-1.502-.6777-.7295-.8291-.6504-2.0928.1787-2.8232.75-.6611,1.1807-1.6143,1.1807-2.6172,0-1.9277-1.5684-3.4961-3.4951-3.4961-1.9277,0-3.4961,1.5684-3.4961,3.4961,0,1.0029.4307,1.9561,1.1807,2.6172.8291.7305.9082,1.9941.1787,2.8232-.7305.8281-1.9941.9092-2.8232.1787-1.6113-1.4199-2.5361-3.4688-2.5361-5.6191,0-4.1338,3.3623-7.4961,7.4961-7.4961s7.4951,3.3623,7.4951,7.4961c0,2.1504-.9248,4.1992-2.5361,5.6191-.3799.335-.8516.499-1.3213.499Z" fill="#cfc" stroke-width="0"/>
  </g>
</svg>