<?xml version="1.0" encoding="UTF-8"?>
<svg id="Layer_1" data-name="Layer 1" xmlns="http://www.w3.org/2000/svg" version="1.1" viewBox="0 0 200 200">
  <defs>
    <style>
      .cls-1 {
        fill: #d4d3e8;
      }

      .cls-1, .cls-2 {
        stroke-width: 0px;
      }

      .cls-2 {
        fill: #f8fcc5;
      }
    </style>
  </defs>
  <rect class="cls-1" y="50" width="100" height="24.3"/>
  <rect class="cls-1" y="98.6" width="100" height="24.3"/>
  <rect class="cls-1" y="50" width="24.3" height="100"/>
  <path class="cls-1" d="M200,100c0,27.6-22.4,50-50,50h-50V50h50c.6,0,1.1,0,1.6,0,6.8.2,13.2,1.8,19,4.4,5.5,2.5,10.5,6,14.7,10.2,9.1,9,14.7,21.5,14.7,35.4Z"/>
  <path class="cls-2" d="M139.4,71.1c0,21.9-4.9,39.7-10.8,39.7s-10.8-17.8-10.8-39.7.6-15,1.7-21.1h18.3c1,6.1,1.7,13.3,1.7,21.1h0Z"/>
  <path class="cls-2" d="M171.6,71.1c0,21.9-4.9,39.7-10.8,39.7s-10.8-17.8-10.8-39.7.6-15,1.6-21.1c6.8.2,13.2,1.8,19,4.4.6,5.1,1,10.7,1,16.6Z"/>
</svg>