<?xml version="1.0" encoding="UTF-8"?>
<svg id="Layer_1" data-name="Layer 1" xmlns="http://www.w3.org/2000/svg" version="1.1" viewBox="0 0 124 114">
  <path d="M62.001,113.7627c-8.3047,0-15.061-6.7549-15.061-15.0586v-2h30.1196v2c0,8.3037-6.7549,15.0586-15.0586,15.0586ZM51.1211,100.7041c.9438,5.1465,5.4634,9.0586,10.8799,9.0586s9.9336-3.9121,10.877-9.0586h-21.7568Z" fill="#cfc" stroke-width="0"/>
  <path d="M51.2695,15.5708l-.3662-2.3267c-.0918-.582-.1382-1.1782-.1382-1.771C50.7651,5.2778,55.8057.2373,62.001.2373s11.2334,5.0405,11.2334,11.2358c0,.5967-.0469,1.1938-.1406,1.7749l-.3721,2.3174-2.2285-.7349c-5.4697-1.8032-11.5308-1.8008-16.9868.0015l-2.2368.7388ZM62.001,4.2373c-3.5898,0-6.5771,2.6274-7.1406,6.0605,4.6548-1.0952,9.6172-1.0967,14.2783-.0005-.5625-3.4326-3.5498-6.0601-7.1377-6.0601Z" fill="#cfc" stroke-width="0"/>
  <path d="M123.7979,100.7041H.2021l.4478-2.3711c.8159-4.3174,2.4229-7.833,4.7764-10.4492,2.7642-3.0684,6.1826-3.8662,9.4893-4.6387.5596-.1309,1.1255-.2627,1.6963-.4082,3.2471-.8242,5.7642-2.6738,8.5454-5.1973.2241-.2031.4448-.4062.6641-.6104,3.2412-3.0215,5.1011-7.3232,5.1011-11.7998v-24.6797c0-13.4453,8.5718-25.3066,21.3301-29.5161,6.2637-2.0684,13.2134-2.0723,19.4927-.002,12.7598,4.2104,21.333,16.0732,21.333,29.5181v24.6797c0,4.4766,1.8594,8.7783,5.1016,11.8008.2188.2041.4404.4072.6621.6084,2.7822,2.5244,5.2998,4.374,8.5449,5.1982.5713.1455,1.1377.2773,1.6973.4082,3.3066.7725,6.7256,1.5703,9.4893,4.6377,2.3545,2.6172,3.9619,6.1328,4.7764,10.4502l.4482,2.3711ZM5.1475,96.7041h113.7051c-.7354-2.498-1.8242-4.5576-3.252-6.1445-1.9229-2.1338-4.4736-2.7295-7.4268-3.4189-.584-.1367-1.1758-.2754-1.7725-.4268-4.2842-1.0879-7.457-3.5801-10.2461-6.1113-.2344-.2119-.4697-.4287-.7031-.6455-4.0508-3.7783-6.374-9.1455-6.374-14.7275v-24.6797c0-11.7153-7.4688-22.0508-18.5859-25.7192-5.4678-1.8032-11.5298-1.8008-16.9858.0015-11.1162,3.6675-18.584,14.0029-18.584,25.7178v24.6797c0,5.582-2.3232,10.9502-6.3745,14.7266-.2349.2188-.4692.4355-.7056.6484-2.7871,2.5293-5.959,5.0215-10.2451,6.1094-.5957.1514-1.1875.29-1.772.4268-2.9526.6895-5.5029,1.2852-7.4263,3.4199-1.4268,1.5859-2.5161,3.6455-3.2515,6.1436Z" fill="#cfc" stroke-width="0"/>
</svg>