<?xml version="1.0" encoding="UTF-8"?>
<svg id="Layer_1" data-name="Layer 1" xmlns="http://www.w3.org/2000/svg" version="1.1" viewBox="0 0 115 115">
  <path d="M57.5,2.7374C27.2551,2.7374,2.7374,27.2551,2.7374,57.5s24.5177,54.7626,54.7626,54.7626,54.7626-24.5177,54.7626-54.7626S87.7449,2.7374,57.5,2.7374ZM57.5,64.2123c-3.707,0-6.7123-3.0053-6.7123-6.7123,0-2.5296,1.3991-4.7318,3.4648-5.8754.9616-.5329,2.0701-.8368,3.2475-.8368s2.2859.3039,3.2475.8368c1.104.6107,2.0172,1.5239,2.628,2.628.5329.9616.8368,2.0701.8368,3.2475s-.3039,2.2859-.8368,3.2475c-1.1437,2.0657-3.3459,3.4648-5.8754,3.4648Z" fill="none" stroke="#75a072" stroke-miterlimit="10" stroke-width="4"/>
  <path d="M60.7475,16.4277v35.1969c-.9616-.5329-2.0701-.8368-3.2475-.8368s-2.2859.3039-3.2475.8368V16.4277c0-1.7941,1.4534-3.2475,3.2475-3.2475.897,0,1.7089.3641,2.2962.9513.5873.5873.9513,1.3991.9513,2.2962Z" fill="none" stroke="#75a072" stroke-miterlimit="10" stroke-width="4"/>
  <path d="M87.1371,57.5c0,.897-.3641,1.7089-.9513,2.2962-.5887.5873-1.3991.9513-2.2962.9513h-20.5141c.5329-.9616.8368-2.0701.8368-3.2475s-.3039-2.2859-.8368-3.2475h20.5141c1.7926,0,3.2475,1.4534,3.2475,3.2475Z" fill="none" stroke="#75a072" stroke-miterlimit="10" stroke-width="4"/>
  <path d="M64.2123,57.5c0,1.1774-.3039,2.2859-.8368,3.2475-1.1437,2.0657-3.3459,3.4648-5.8754,3.4648-3.707,0-6.7123-3.0053-6.7123-6.7123,0-2.5296,1.3991-4.7318,3.4648-5.8754.9616-.5329,2.0701-.8368,3.2475-.8368s2.2859.3039,3.2475.8368c1.104.6107,2.0172,1.5239,2.628,2.628.5329.9616.8368,2.0701.8368,3.2475Z" fill="none" stroke="#75a072" stroke-miterlimit="10" stroke-width="4"/>
</svg>