<?xml version="1.0" encoding="UTF-8"?>
<svg id="Layer_1" data-name="Layer 1" xmlns="http://www.w3.org/2000/svg" version="1.1" viewBox="0 0 105 114">
  <path d="M85.6384,113.7627H19.3606c-10.5083,0-19.0576-8.5488-19.0576-19.0576v-52.6782h10.5132v48.3774c0,7.084,5.7622,12.8477,12.8447,12.8477h57.6777c7.083,0,12.8447-5.7637,12.8447-12.8477v-48.3774h10.5137v52.6782c0,10.5088-8.5498,19.0576-19.0586,19.0576ZM4.303,46.0269v48.6782c0,8.3027,6.7549,15.0576,15.0576,15.0576h66.2778c8.3037,0,15.0586-6.7549,15.0586-15.0576v-48.6782h-2.5137v44.3774c0,9.29-7.5566,16.8477-16.8447,16.8477H23.6609c-9.2881,0-16.8447-7.5576-16.8447-16.8477v-44.3774h-2.5132Z" fill="#75a072" stroke-width="0"/>
  <path d="M81.3386,107.252H23.6609c-9.2881,0-16.8447-7.5576-16.8447-16.8477v-48.3774h91.3672v48.3774c0,9.29-7.5566,16.8477-16.8447,16.8477ZM10.8162,46.0269v44.3774c0,7.084,5.7622,12.8477,12.8447,12.8477h57.6777c7.083,0,12.8447-5.7637,12.8447-12.8477v-44.3774H10.8162Z" fill="#75a072" stroke-width="0"/>
  <path d="M104.697,46.0269H.303v-17.5977C.303,18.7339,7.5559,10.5957,17.1736,9.4985l2.2266-.2539v7.606c0,.3457.105.6743.3037.9512.3188.4473.8096.7007,1.3506.7007.728,0,1.3804-.4878,1.5869-1.1865.043-.147.0654-.3057.0654-.4653v-7.4795h59.5859v7.4795c0,.1597.0225.3184.0674.4712.2041.6924.8574,1.1807,1.585,1.1807.5342,0,1.0371-.2588,1.3447-.6924.2051-.2852.3096-.6138.3096-.9595v-7.606l2.2266.2539c9.6182,1.0967,16.8711,9.2349,16.8711,18.9307v17.5977ZM4.303,42.0269h96.394v-13.5977c0-6.8916-4.6357-12.7876-11.0977-14.5317v2.9531c0,1.1885-.3643,2.3242-1.0547,3.2842-1.0498,1.479-2.7715,2.3677-4.5996,2.3677-2.4873,0-4.7178-1.667-5.4229-4.0532-.1533-.5234-.2295-1.0591-.2295-1.5986v-3.4795H26.7068v3.4795c0,.5396-.0767,1.0752-.2275,1.5923-.7061,2.3926-2.9365,4.0596-5.4248,4.0596-1.8232,0-3.5444-.8872-4.604-2.3735-.686-.9556-1.0503-2.0908-1.0503-3.2783v-2.9531c-6.4614,1.7446-11.0972,7.6401-11.0972,14.5317v13.5977Z" fill="#75a072" stroke-width="0"/>
  <path d="M21.0544,22.5024c-1.8232,0-3.5444-.8872-4.604-2.3735-.686-.9556-1.0503-2.0908-1.0503-3.2783V5.8896C15.4001,2.7729,17.9368.2373,21.0544.2373c1.5063,0,2.9248.5869,3.9946,1.6523,1.0708,1.0752,1.6577,2.4937,1.6577,4v10.9609c0,.5396-.0767,1.0752-.2275,1.5923-.7061,2.3926-2.9365,4.0596-5.4248,4.0596ZM21.0544,4.2373c-.9121,0-1.6543.7412-1.6543,1.6523v10.9609c0,.3457.105.6743.3037.9512.3188.4473.8096.7007,1.3506.7007.728,0,1.3804-.4878,1.5869-1.1865.043-.147.0654-.3057.0654-.4653V5.8896c0-.4409-.1729-.8569-.4863-1.1714-.3091-.3081-.7251-.481-1.166-.481Z" fill="#75a072" stroke-width="0"/>
  <path d="M83.9451,22.5024c-2.4873,0-4.7178-1.667-5.4229-4.0532-.1533-.5234-.2295-1.0591-.2295-1.5986V5.8896c0-3.1167,2.5352-5.6523,5.6523-5.6523,1.5078,0,2.9268.5869,3.9961,1.6523,1.0713,1.0742,1.6582,2.4927,1.6582,4v10.9609c0,1.1885-.3643,2.3242-1.0547,3.2842-1.0498,1.479-2.7715,2.3677-4.5996,2.3677ZM83.9451,4.2373c-.9111,0-1.6523.7412-1.6523,1.6523v10.9609c0,.1597.0225.3184.0674.4712.2041.6924.8574,1.1807,1.585,1.1807.5342,0,1.0371-.2588,1.3447-.6924.2051-.2852.3096-.6138.3096-.9595V5.8896c0-.4409-.1729-.8569-.4854-1.1709-.3105-.3086-.7266-.4814-1.1689-.4814Z" fill="#75a072" stroke-width="0"/>
</svg>