<?xml version="1.0" encoding="UTF-8"?>
<svg id="Layer_1" data-name="Layer 1" xmlns="http://www.w3.org/2000/svg" version="1.1" viewBox="0 0 545.3 246">
  <defs>
    <style>
      .cls-1 {
        fill: #75a072;
      }

      .cls-1, .cls-2 {
        stroke-width: 0px;
      }

      .cls-2 {
        fill: #98d696;
      }
    </style>
  </defs>
  <path class="cls-1" d="M121.4,244.4c-4.2,0-8.3-.7-12.2-1.9-5.8-1.9-11.1-5.2-15.4-9.5-7.4-7.4-11.4-17.2-11.4-27.6V40.6c0-16.9,10.8-31.8,26.8-37.1,3.9-1.3,8-1.9,12.2-1.9s8.3.7,12.2,1.9c5.8,1.9,11.1,5.2,15.4,9.5,7.4,7.4,11.4,17.2,11.4,27.6v164.8c0,16.9-10.8,31.8-26.8,37-3.9,1.3-8,1.9-12.2,1.9h0Z"/>
  <path class="cls-1" d="M0,123C0,118.8.7,114.7,1.9,110.8c1.9-5.8,5.2-11.1,9.5-15.4,7.4-7.4,17.2-11.4,27.6-11.4h164.8c16.9,0,31.8,10.8,37.1,26.8,1.3,3.9,1.9,8,1.9,12.2s-.7,8.3-1.9,12.2c-1.9,5.8-5.2,11.1-9.5,15.4-7.4,7.4-17.2,11.4-27.6,11.4H39c-16.9,0-31.8-10.8-37-26.8C.7,131.2,0,127.1,0,123H0Z"/>
  <path class="cls-2" d="M39,91.3h164.8c17.5,0,31.7,14.2,31.7,31.7h0c0,17.5-14.2,31.7-31.7,31.7H39c-17.5,0-31.7-14.2-31.7-31.7h0c0-17.5,14.2-31.7,31.7-31.7Z"/>
  <path class="cls-2" d="M153,40.6v164.8c0,14-9.1,26-21.8,30.1-3.1,1-6.4,1.6-9.9,1.6s-6.8-.5-9.9-1.6c-4.8-1.6-9.1-4.2-12.5-7.7-5.7-5.7-9.3-13.7-9.3-22.4V40.6c0-14,9.1-26,21.8-30.1,3.1-1,6.4-1.6,9.9-1.6s6.8.5,9.9,1.6c4.8,1.6,9.1,4.2,12.5,7.7,5.7,5.7,9.3,13.7,9.3,22.4h0Z"/>
  <g>
    <path class="cls-1" d="M326.6,142h-42.5v-5.5h42.5v5.5ZM321.9,123.3h-33.3v-23.5h33.3v23.5ZM295.1,118h20.4v-12.8h-20.4v12.8ZM308.5,137.8h-6.4v-12.1h6.4v12.1Z"/>
    <path class="cls-1" d="M370.7,128.8h-42.5v-5.3h42.5v5.3ZM365.3,104.2h-25v11.7h-6.7v-17h31.7v5.3h0ZM365.8,118.6h-32.1v-5.2h32.1v5.2ZM352.6,144.1h-6.5v-17.6h6.5v17.6Z"/>
    <path class="cls-1" d="M391.3,101.7c1.8,1.4,3.3,3.4,4.4,6,1.1,2.6,1.6,5.6,1.6,9,0,3.4-.6,6.5-1.6,9-1.1,2.6-2.5,4.6-4.4,6-1.8,1.4-3.9,2.1-6.3,2.1s-4.5-.7-6.4-2.1c-1.9-1.4-3.3-3.4-4.4-6-1-2.6-1.6-5.6-1.6-9s.5-6.4,1.6-9c1-2.6,2.5-4.6,4.4-6s4-2.1,6.4-2.1,4.4.7,6.3,2.1ZM381.8,107c-.9.9-1.6,2.1-2.1,3.8-.5,1.7-.8,3.6-.8,6s.3,4.3.8,6c.5,1.6,1.2,2.9,2.1,3.8.9.9,1.9,1.3,3.1,1.3s2.3-.4,3.2-1.3c.9-.9,1.6-2.1,2.1-3.8.5-1.7.7-3.6.7-6s-.2-4.3-.7-6c-.5-1.7-1.2-2.9-2.1-3.8-.9-.9-2-1.3-3.2-1.3-1.2,0-2.2.4-3.1,1.3ZM409.1,144.2h-6.5v-48h6.5v48ZM416,120h-8.3v-5.6h8.3v5.6Z"/>
    <path class="cls-1" d="M436.5,101.7c1.9,1.4,3.3,3.4,4.4,6,1,2.6,1.6,5.6,1.6,9s-.5,6.5-1.6,9c-1,2.6-2.5,4.6-4.4,6-1.9,1.4-4,2.1-6.3,2.1-2.4,0-4.5-.7-6.3-2.1-1.9-1.4-3.3-3.4-4.4-6-1.1-2.6-1.6-5.6-1.6-9s.5-6.4,1.6-9c1.1-2.6,2.5-4.6,4.4-6,1.9-1.4,4-2.1,6.3-2.1s4.4.7,6.3,2.1ZM427.1,107c-.9.9-1.6,2.1-2.1,3.8-.5,1.7-.7,3.7-.7,6,0,2.3.2,4.3.7,6,.5,1.6,1.2,2.9,2.1,3.8.9.9,2,1.3,3.2,1.3s2.2-.4,3.1-1.3c.9-.9,1.6-2.1,2.1-3.8.5-1.7.7-3.6.7-6s-.2-4.3-.7-6c-.5-1.6-1.2-2.9-2.1-3.8-.9-.9-1.9-1.3-3.1-1.3-1.2,0-2.3.4-3.2,1.3ZM455.5,144.3h-6.6v-48.1h6.6v48.1Z"/>
    <path class="cls-1" d="M469.3,105.7h9.1v-6.4h6.5v23h-22.2v-23h6.6v6.4h0ZM492.6,126.9c2.4.7,4.3,1.8,5.5,3.2s1.9,3.1,1.9,5c0,1.9-.7,3.6-2,4.9-1.3,1.4-3.1,2.4-5.5,3.1-2.4.7-5.3,1.1-8.6,1.1s-6.1-.4-8.5-1.1c-2.4-.7-4.2-1.8-5.5-3.1-1.3-1.4-1.9-3-1.9-4.9s.6-3.6,1.9-5c1.3-1.4,3.1-2.5,5.5-3.2s5.2-1.1,8.5-1.1c3.3,0,6.2.4,8.6,1.1ZM478.4,116.9v-6.1h-9.1v6.1h9.1ZM478.8,131.3c-1.4.3-2.5.8-3.2,1.4-.7.6-1.1,1.4-1.1,2.3s.4,1.6,1.1,2.2c.7.6,1.8,1.1,3.2,1.4,1.4.3,3.1.5,5.2.5,2.1,0,3.8-.2,5.2-.5s2.5-.8,3.2-1.4c.7-.6,1.1-1.3,1.1-2.2s-.4-1.7-1.1-2.3c-.7-.6-1.8-1.1-3.2-1.4-1.4-.3-3.2-.5-5.3-.4-2.1,0-3.8.1-5.2.4h0ZM496.7,108.6h-10.4v-5.3h10.4v5.3ZM496.7,118.5h-10.4v-5.4h10.4v5.4ZM501.7,124.9h-6.5v-28.7h6.5v28.7Z"/>
    <path class="cls-1" d="M521.1,117.2c4.7-.2,9.2-.6,13.5-1.1l.3,4.8c-4.5.8-9.2,1.3-14.1,1.6-4.9.3-10,.4-15.3.4l-.8-5.3c6.2,0,11.6-.2,16.3-.4h0ZM525.8,99c1.8.7,3.1,1.7,4.1,3s1.5,2.8,1.5,4.5-.5,3.2-1.5,4.4-2.4,2.3-4.1,3c-1.8.7-3.8,1.1-6,1.1s-4.3-.4-6.1-1.1c-1.8-.7-3.1-1.7-4.1-3-1-1.3-1.5-2.7-1.5-4.4s.5-3.2,1.5-4.5c1-1.3,2.4-2.3,4.1-3,1.8-.7,3.8-1.1,6.1-1.1s4.2.4,6,1.1h0ZM517.2,139.4h-6.6v-7.3h6.6v7.3ZM545.3,143.4h-34.7v-5.4h34.7v5.4ZM517,103.3c-.8.3-1.5.7-1.9,1.3-.5.6-.7,1.2-.7,2,0,.8.2,1.4.7,2,.5.5,1.1,1,1.9,1.2.8.3,1.8.4,2.9.4s2-.1,2.8-.4c.8-.3,1.4-.7,1.9-1.2.5-.5.7-1.2.7-2s-.2-1.4-.7-2c-.5-.6-1.1-1-1.9-1.3-.8-.3-1.7-.4-2.8-.4s-2.1.1-2.9.4h0ZM523.7,131.4h-6.6v-10.6h6.6v10.6ZM539.2,128.7h-10.4v-4.6h10.4v4.6ZM544.3,132.6h-6.5v-36.2h6.5v36.2Z"/>
  </g>
</svg>